<svg width="218" height="288" viewBox="0 0 218 288" fill="none" xmlns="http://www.w3.org/2000/svg">
<path d="M192.474 25.6624L161.128 69.8081C156.51 76.3121 154.717 84.4067 156.156 92.2527L160.445 115.631C162.727 128.072 150.514 138.216 138.703 133.69V133.69C129.651 130.221 119.598 135.422 117.2 144.815L116.192 148.765C113.421 159.617 101.415 165.221 91.3167 160.376V160.376C79.996 154.944 66.7688 162.664 65.9298 175.192L64.0077 203.894C63.4849 211.701 60.515 219.145 55.5199 225.169L30.4487 255.4" stroke="black" stroke-width="0.5"/>
<path d="M10.4437 269.667C16.9196 260.574 24.4717 247.701 27.1712 237.588L31.5322 255.768L46.4375 266.997C35.8016 265.673 21.3348 267.314 10.4437 269.667Z" fill="#0368FF"/>
<path d="M202.123 11.3819C200.015 22.2181 198.507 36.9279 200.276 47.2223L188.679 32.3126L170.359 27.8682C180.63 24.927 193.159 17.7828 202.123 11.3819Z" fill="#0368FF"/>
</svg>
