<svg width="518" height="324" viewBox="0 0 518 324" fill="none" xmlns="http://www.w3.org/2000/svg">
<path d="M38.3359 29.1121L50.5686 76.4938C57.107 101.819 84.821 115.212 108.727 104.599L126.832 96.5617C149.088 86.6816 173.579 104.965 170.433 129.11V129.11C168.023 147.617 182.289 164.086 200.95 164.34L208.797 164.447C230.357 164.74 246.259 184.684 241.743 205.767V205.767C236.681 229.404 257.092 250.68 280.918 246.602L342.009 236.145C352.614 234.33 363.522 235.984 373.112 240.862L482.5 296.5" stroke="black" stroke-width="0.5"/>
<path d="M28.9783 7.73271C29.1846 18.7681 28.1317 33.5237 24.6128 43.3814L38.6087 30.6038L57.4198 29.2617C47.9526 24.9931 36.7029 15.5323 28.9783 7.73271Z" fill="#0368FF"/>
<path d="M505.794 307.139C494.646 306.99 479.797 308.11 470.001 311.655L482.285 297.69L482.814 279C487.884 288.52 497.582 299.506 505.794 307.139Z" fill="#0368FF"/>
</svg>
